<svg data-v-423bf9ae="" xmlns="http://www.w3.org/2000/svg" viewBox="0 0 481 90" class="iconLeftSlogan"><!----><!----><!----><g data-v-423bf9ae="" id="a9e65cf6-9501-48e7-84b2-bb5f388b53d3" fill="white" transform="matrix(5.88235305117351,0,0,5.88235305117351,104.64706919329379,-27.94117746991133)"><path d="M2.21 6.22L6.87 6.22L6.87 6.22Q6.97 6.37 7.05 6.63L7.05 6.63L7.05 6.63Q7.13 6.89 7.13 7.17L7.13 7.17L7.13 7.17Q7.13 7.71 6.90 7.95L6.90 7.95L6.90 7.95Q6.66 8.18 6.27 8.18L6.27 8.18L3.33 8.18L3.33 9.76L6.40 9.76L6.40 9.76Q6.51 9.91 6.59 10.16L6.59 10.16L6.59 10.16Q6.66 10.42 6.66 10.70L6.66 10.70L6.66 10.70Q6.66 11.23 6.43 11.46L6.43 11.46L6.43 11.46Q6.20 11.69 5.81 11.69L5.81 11.69L3.36 11.69L3.36 14.64L3.36 14.64Q3.21 14.69 2.88 14.73L2.88 14.73L2.88 14.73Q2.55 14.77 2.23 14.77L2.23 14.77L2.23 14.77Q1.90 14.77 1.66 14.72L1.66 14.72L1.66 14.72Q1.41 14.67 1.25 14.55L1.25 14.55L1.25 14.55Q1.08 14.42 0.99 14.20L0.99 14.20L0.99 14.20Q0.91 13.97 0.91 13.61L0.91 13.61L0.91 7.52L0.91 7.52Q0.91 6.92 1.26 6.57L1.26 6.57L1.26 6.57Q1.61 6.22 2.21 6.22L2.21 6.22ZM8.11 6.01L8.11 6.01L8.11 6.01Q8.11 5.47 8.46 5.11L8.46 5.11L8.46 5.11Q8.82 4.75 9.41 4.75L9.41 4.75L9.41 4.75Q10.00 4.75 10.35 5.11L10.35 5.11L10.35 5.11Q10.71 5.47 10.71 6.01L10.71 6.01L10.71 6.01Q10.71 6.54 10.35 6.90L10.35 6.90L10.35 6.90Q10.00 7.27 9.41 7.27L9.41 7.27L9.41 7.27Q8.82 7.27 8.46 6.90L8.46 6.90L8.46 6.90Q8.11 6.54 8.11 6.01ZM10.60 8.99L10.60 14.69L10.60 14.69Q10.44 14.71 10.14 14.76L10.14 14.76L10.14 14.76Q9.84 14.81 9.53 14.81L9.53 14.81L9.53 14.81Q9.23 14.81 8.98 14.77L8.98 14.77L8.98 14.77Q8.74 14.73 8.57 14.60L8.57 14.60L8.57 14.60Q8.40 14.48 8.31 14.26L8.31 14.26L8.31 14.26Q8.22 14.04 8.22 13.69L8.22 13.69L8.22 7.99L8.22 7.99Q8.37 7.97 8.67 7.92L8.67 7.92L8.67 7.92Q8.97 7.87 9.28 7.87L9.28 7.87L9.28 7.87Q9.59 7.87 9.84 7.91L9.84 7.91L9.84 7.91Q10.08 7.95 10.25 8.08L10.25 8.08L10.25 8.08Q10.42 8.20 10.51 8.42L10.51 8.42L10.51 8.42Q10.60 8.64 10.60 8.99L10.60 8.99ZM16.42 13.69L16.42 10.39L16.42 10.39Q16.42 9.95 16.18 9.75L16.18 9.75L16.18 9.75Q15.93 9.55 15.51 9.55L15.51 9.55L15.51 9.55Q15.23 9.55 14.96 9.62L14.96 9.62L14.96 9.62Q14.69 9.69 14.49 9.83L14.49 9.83L14.49 14.69L14.49 14.69Q14.35 14.73 14.05 14.77L14.05 14.77L14.05 14.77Q13.75 14.81 13.43 14.81L13.43 14.81L13.43 14.81Q13.12 14.81 12.87 14.77L12.87 14.77L12.87 14.77Q12.63 14.73 12.46 14.60L12.46 14.60L12.46 14.60Q12.29 14.48 12.20 14.26L12.20 14.26L12.20 14.26Q12.11 14.04 12.11 13.69L12.11 13.69L12.11 9.49L12.11 9.49Q12.11 9.11 12.27 8.88L12.27 8.88L12.27 8.88Q12.43 8.64 12.71 8.44L12.71 8.44L12.71 8.44Q13.19 8.11 13.91 7.90L13.91 7.90L13.91 7.90Q14.63 7.69 15.51 7.69L15.51 7.69L15.51 7.69Q17.09 7.69 17.95 8.38L17.95 8.38L17.95 8.38Q18.80 9.07 18.80 10.30L18.80 10.30L18.80 14.69L18.80 14.69Q18.66 14.73 18.36 14.77L18.36 14.77L18.36 14.77Q18.06 14.81 17.74 14.81L17.74 14.81L17.74 14.81Q17.43 14.81 17.18 14.77L17.18 14.77L17.18 14.77Q16.94 14.73 16.77 14.60L16.77 14.60L16.77 14.60Q16.60 14.48 16.51 14.26L16.51 14.26L16.51 14.26Q16.42 14.04 16.42 13.69L16.42 13.69ZM23.18 13.19L23.18 13.19L23.18 13.19Q23.42 13.19 23.71 13.14L23.71 13.14L23.71 13.14Q24.00 13.09 24.14 13.01L24.14 13.01L24.14 11.89L23.13 11.97L23.13 11.97Q22.74 12.00 22.48 12.14L22.48 12.14L22.48 12.14Q22.23 12.28 22.23 12.56L22.23 12.56L22.23 12.56Q22.23 12.84 22.45 13.01L22.45 13.01L22.45 13.01Q22.67 13.19 23.18 13.19ZM23.07 7.69L23.07 7.69L23.07 7.69Q23.83 7.69 24.45 7.84L24.45 7.84L24.45 7.84Q25.07 7.99 25.52 8.31L25.52 8.31L25.52 8.31Q25.96 8.62 26.19 9.11L26.19 9.11L26.19 9.11Q26.43 9.59 26.43 10.25L26.43 10.25L26.43 13.38L26.43 13.38Q26.43 13.75 26.23 13.98L26.23 13.98L26.23 13.98Q26.03 14.21 25.75 14.38L25.75 14.38L25.75 14.38Q24.84 14.92 23.18 14.92L23.18 14.92L23.18 14.92Q22.44 14.92 21.85 14.78L21.85 14.78L21.85 14.78Q21.25 14.64 20.82 14.36L20.82 14.36L20.82 14.36Q20.40 14.08 20.17 13.65L20.17 13.65L20.17 13.65Q19.94 13.22 19.94 12.64L19.94 12.64L19.94 12.64Q19.94 11.68 20.51 11.16L20.51 11.16L20.51 11.16Q21.08 10.64 22.29 10.51L22.29 10.51L24.12 10.32L24.12 10.22L24.12 10.22Q24.12 9.81 23.77 9.64L23.77 9.64L23.77 9.64Q23.41 9.46 22.74 9.46L22.74 9.46L22.74 9.46Q22.20 9.46 21.70 9.58L21.70 9.58L21.70 9.58Q21.20 9.69 20.79 9.86L20.79 9.86L20.79 9.86Q20.61 9.73 20.48 9.47L20.48 9.47L20.48 9.47Q20.36 9.21 20.36 8.93L20.36 8.93L20.36 8.93Q20.36 8.57 20.53 8.35L20.53 8.35L20.53 8.35Q20.71 8.13 21.07 7.98L21.07 7.98L21.07 7.98Q21.48 7.83 22.03 7.76L22.03 7.76L22.03 7.76Q22.58 7.69 23.07 7.69ZM32.20 13.69L32.20 10.39L32.20 10.39Q32.20 9.95 31.95 9.75L31.95 9.75L31.95 9.75Q31.71 9.55 31.29 9.55L31.29 9.55L31.29 9.55Q31.01 9.55 30.74 9.62L30.74 9.62L30.74 9.62Q30.46 9.69 30.27 9.83L30.27 9.83L30.27 14.69L30.27 14.69Q30.13 14.73 29.83 14.77L29.83 14.77L29.83 14.77Q29.53 14.81 29.20 14.81L29.20 14.81L29.20 14.81Q28.90 14.81 28.65 14.77L28.65 14.77L28.65 14.77Q28.41 14.73 28.24 14.60L28.24 14.60L28.24 14.60Q28.07 14.48 27.98 14.26L27.98 14.26L27.98 14.26Q27.89 14.04 27.89 13.69L27.89 13.69L27.89 9.49L27.89 9.49Q27.89 9.11 28.05 8.88L28.05 8.88L28.05 8.88Q28.21 8.64 28.49 8.44L28.49 8.44L28.49 8.44Q28.97 8.11 29.69 7.90L29.69 7.90L29.69 7.90Q30.41 7.69 31.29 7.69L31.29 7.69L31.29 7.69Q32.87 7.69 33.73 8.38L33.73 8.38L33.73 8.38Q34.58 9.07 34.58 10.30L34.58 10.30L34.58 14.69L34.58 14.69Q34.44 14.73 34.14 14.77L34.14 14.77L34.14 14.77Q33.84 14.81 33.52 14.81L33.52 14.81L33.52 14.81Q33.21 14.81 32.96 14.77L32.96 14.77L32.96 14.77Q32.72 14.73 32.55 14.60L32.55 14.60L32.55 14.60Q32.38 14.48 32.29 14.26L32.29 14.26L32.29 14.26Q32.20 14.04 32.20 13.69L32.20 13.69ZM40.56 7.92L40.56 7.92L40.56 7.92Q39.48 7.92 38.91 8.58L38.91 8.58L38.91 8.58Q38.33 9.24 38.33 10.44L38.33 10.44L38.33 10.44Q38.33 11.66 38.97 12.32L38.97 12.32L38.97 12.32Q39.61 12.98 40.68 12.98L40.68 12.98L40.68 12.98Q41.26 12.98 41.66 12.82L41.66 12.82L41.66 12.82Q42.06 12.67 42.42 12.47L42.42 12.47L42.42 12.47Q42.66 12.67 42.79 12.94L42.79 12.94L42.79 12.94Q42.92 13.22 42.92 13.58L42.92 13.58L42.92 13.58Q42.92 14.15 42.29 14.55L42.29 14.55L42.29 14.55Q41.65 14.95 40.35 14.95L40.35 14.95L40.35 14.95Q39.41 14.95 38.58 14.69L38.58 14.69L38.58 14.69Q37.76 14.42 37.14 13.87L37.14 13.87L37.14 13.87Q36.53 13.31 36.17 12.47L36.17 12.47L36.17 12.47Q35.81 11.62 35.81 10.44L35.81 10.44L35.81 10.44Q35.81 9.35 36.16 8.52L36.16 8.52L36.16 8.52Q36.50 7.69 37.09 7.11L37.09 7.11L37.09 7.11Q37.69 6.54 38.49 6.24L38.49 6.24L38.49 6.24Q39.28 5.95 40.19 5.95L40.19 5.95L40.19 5.95Q41.48 5.95 42.19 6.37L42.19 6.37L42.19 6.37Q42.90 6.79 42.90 7.45L42.90 7.45L42.90 7.45Q42.90 7.81 42.71 8.08L42.71 8.08L42.71 8.08Q42.53 8.34 42.29 8.50L42.29 8.50L42.29 8.50Q41.93 8.26 41.52 8.09L41.52 8.09L41.52 8.09Q41.10 7.92 40.56 7.92ZM46.96 13.19L46.96 13.19L46.96 13.19Q47.19 13.19 47.48 13.14L47.48 13.14L47.48 13.14Q47.77 13.09 47.91 13.01L47.91 13.01L47.91 11.89L46.90 11.97L46.90 11.97Q46.51 12.00 46.26 12.14L46.26 12.14L46.26 12.14Q46.00 12.28 46.00 12.56L46.00 12.56L46.00 12.56Q46.00 12.84 46.22 13.01L46.22 13.01L46.22 13.01Q46.44 13.19 46.96 13.19ZM46.84 7.69L46.84 7.69L46.84 7.69Q47.60 7.69 48.22 7.84L48.22 7.84L48.22 7.84Q48.85 7.99 49.29 8.31L49.29 8.31L49.29 8.31Q49.73 8.62 49.97 9.11L49.97 9.11L49.97 9.11Q50.20 9.59 50.20 10.25L50.20 10.25L50.20 13.38L50.20 13.38Q50.20 13.75 50.00 13.98L50.00 13.98L50.00 13.98Q49.80 14.21 49.52 14.38L49.52 14.38L49.52 14.38Q48.61 14.92 46.96 14.92L46.96 14.92L46.96 14.92Q46.21 14.92 45.62 14.78L45.62 14.78L45.62 14.78Q45.02 14.64 44.60 14.36L44.60 14.36L44.60 14.36Q44.17 14.08 43.94 13.65L43.94 13.65L43.94 13.65Q43.71 13.22 43.71 12.64L43.71 12.64L43.71 12.64Q43.71 11.68 44.28 11.16L44.28 11.16L44.28 11.16Q44.86 10.64 46.06 10.51L46.06 10.51L47.89 10.32L47.89 10.22L47.89 10.22Q47.89 9.81 47.54 9.64L47.54 9.64L47.54 9.64Q47.18 9.46 46.51 9.46L46.51 9.46L46.51 9.46Q45.98 9.46 45.47 9.58L45.47 9.58L45.47 9.58Q44.97 9.69 44.56 9.86L44.56 9.86L44.56 9.86Q44.38 9.73 44.25 9.47L44.25 9.47L44.25 9.47Q44.13 9.21 44.13 8.93L44.13 8.93L44.13 8.93Q44.13 8.57 44.30 8.35L44.30 8.35L44.30 8.35Q44.48 8.13 44.84 7.98L44.84 7.98L44.84 7.98Q45.25 7.83 45.80 7.76L45.80 7.76L45.80 7.76Q46.35 7.69 46.84 7.69ZM54.04 9.91L54.04 14.69L54.04 14.69Q53.90 14.73 53.60 14.77L53.60 14.77L53.60 14.77Q53.30 14.81 52.98 14.81L52.98 14.81L52.98 14.81Q52.67 14.81 52.42 14.77L52.42 14.77L52.42 14.77Q52.18 14.73 52.01 14.60L52.01 14.60L52.01 14.60Q51.84 14.48 51.75 14.26L51.75 14.26L51.75 14.26Q51.66 14.04 51.66 13.69L51.66 13.69L51.66 9.49L51.66 9.49Q51.66 9.17 51.78 8.94L51.78 8.94L51.78 8.94Q51.90 8.71 52.12 8.53L52.12 8.53L52.12 8.53Q52.35 8.34 52.68 8.20L52.68 8.20L52.68 8.20Q53.00 8.05 53.38 7.94L53.38 7.94L53.38 7.94Q53.76 7.83 54.17 7.76L54.17 7.76L54.17 7.76Q54.57 7.70 54.98 7.70L54.98 7.70L54.98 7.70Q55.65 7.70 56.04 7.96L56.04 7.96L56.04 7.96Q56.43 8.22 56.43 8.81L56.43 8.81L56.43 8.81Q56.43 9.00 56.38 9.19L56.38 9.19L56.38 9.19Q56.32 9.38 56.24 9.53L56.24 9.53L56.24 9.53Q55.94 9.53 55.64 9.56L55.64 9.56L55.64 9.56Q55.33 9.59 55.03 9.65L55.03 9.65L55.03 9.65Q54.74 9.70 54.48 9.77L54.48 9.77L54.48 9.77Q54.22 9.83 54.04 9.91L54.04 9.91ZM61.01 14.92L61.01 14.92L61.01 14.92Q60.19 14.92 59.48 14.69L59.48 14.69L59.48 14.69Q58.77 14.46 58.25 14.00L58.25 14.00L58.25 14.00Q57.72 13.54 57.42 12.84L57.42 12.84L57.42 12.84Q57.12 12.14 57.12 11.20L57.12 11.20L57.12 11.20Q57.12 10.28 57.42 9.61L57.42 9.61L57.42 9.61Q57.72 8.95 58.21 8.52L58.21 8.52L58.21 8.52Q58.70 8.09 59.33 7.89L59.33 7.89L59.33 7.89Q59.96 7.69 60.62 7.69L60.62 7.69L60.62 7.69Q61.36 7.69 61.97 7.91L61.97 7.91L61.97 7.91Q62.58 8.13 63.02 8.53L63.02 8.53L63.02 8.53Q63.46 8.92 63.71 9.46L63.71 9.46L63.71 9.46Q63.95 10.01 63.95 10.65L63.95 10.65L63.95 10.65Q63.95 11.13 63.69 11.38L63.69 11.38L63.69 11.38Q63.42 11.63 62.94 11.70L62.94 11.70L59.49 12.22L59.49 12.22Q59.64 12.68 60.12 12.92L60.12 12.92L60.12 12.92Q60.59 13.15 61.21 13.15L61.21 13.15L61.21 13.15Q61.78 13.15 62.29 13.00L62.29 13.00L62.29 13.00Q62.80 12.85 63.13 12.66L63.13 12.66L63.13 12.66Q63.35 12.80 63.50 13.05L63.50 13.05L63.50 13.05Q63.66 13.30 63.66 13.58L63.66 13.58L63.66 13.58Q63.66 14.21 63.07 14.52L63.07 14.52L63.07 14.52Q62.62 14.76 62.06 14.84L62.06 14.84L62.06 14.84Q61.50 14.92 61.01 14.92ZM60.62 9.42L60.62 9.42L60.62 9.42Q60.28 9.42 60.04 9.53L60.04 9.53L60.04 9.53Q59.79 9.65 59.64 9.82L59.64 9.82L59.64 9.82Q59.49 10.00 59.41 10.21L59.41 10.21L59.41 10.21Q59.33 10.43 59.32 10.65L59.32 10.65L61.71 10.26L61.71 10.26Q61.67 9.98 61.40 9.70L61.40 9.70L61.40 9.70Q61.14 9.42 60.62 9.42Z"></path></g><!----><g data-v-423bf9ae="" id="ac909955-f3b9-42c9-baf6-d671331d4e60" transform="matrix(2.8125,0,0,2.8125,0,0)" stroke="none" fill="white"><path d="M16 32c8.837 0 16-7.163 16-16S24.837 0 16 0 0 7.163 0 16s7.163 16 16 16zM14.817 6.421h2v8.886h8.887v2H14.817V6.421zm-5.959.437h2v14.283h14.283v2H8.858V6.858z"></path></g><!----><g data-v-423bf9ae="" id="47131eff-a0f9-42a6-b3d8-952d5a284181" fill="white" transform="matrix(1.1367981418569812,0,0,1.1367981418569812,108.71541852203848,57.61272254226667)"><path d="M2.18 8.18L5.31 8.18C7.28 8.18 8.50 7.03 8.50 5.19C8.50 3.37 7.28 2.21 5.31 2.21L1.13 2.21L1.13 11.48L2.18 11.48ZM5.24 3.21C6.69 3.21 7.45 3.96 7.45 5.19C7.45 6.44 6.69 7.20 5.24 7.20L2.18 7.20L2.18 3.21ZM21.04 2.10C18.23 2.10 16.34 4.21 16.34 6.85C16.34 9.48 18.23 11.59 21.04 11.59C23.86 11.59 25.75 9.48 25.75 6.85C25.75 4.21 23.86 2.10 21.04 2.10ZM21.04 10.57C18.79 10.57 17.39 8.93 17.39 6.85C17.39 4.76 18.79 3.12 21.04 3.12C23.30 3.12 24.70 4.76 24.70 6.85C24.70 8.93 23.30 10.57 21.04 10.57ZM35.04 4.65C35.04 4.03 35.41 3.08 37.51 3.08C39.20 3.08 39.98 3.82 40.10 4.75L41.17 4.75C41.09 3.36 39.97 2.10 37.51 2.10C35.18 2.10 34.02 3.15 34.02 4.66C34.02 7.84 40.36 6.69 40.36 8.96C40.36 10.05 39.38 10.60 37.81 10.60C36.20 10.60 34.90 10.05 34.83 8.71L33.74 8.71C33.88 10.37 35 11.59 37.74 11.59C40.03 11.59 41.41 10.64 41.41 8.92C41.41 5.68 35.04 6.80 35.04 4.65ZM49.06 13.34L50.01 13.34L51.24 10.36L49.87 10.36ZM76.92 3.22L76.92 2.21L70.10 2.21L70.10 11.48L76.92 11.48L76.92 10.47L71.15 10.47L71.15 7.35L76.30 7.35L76.30 6.33L71.15 6.33L71.15 3.22ZM89.56 2.10C86.74 2.10 84.85 4.21 84.85 6.85C84.85 9.48 86.74 11.59 89.56 11.59C92.37 11.59 94.26 9.48 94.26 6.85C94.26 4.21 92.37 2.10 89.56 2.10ZM89.56 10.57C87.30 10.57 85.90 8.93 85.90 6.85C85.90 4.76 87.30 3.12 89.56 3.12C91.81 3.12 93.21 4.76 93.21 6.85C93.21 8.93 91.81 10.57 89.56 10.57ZM103.99 7.92L107.21 7.92L109.45 11.48L110.70 11.48L108.26 7.74C109.30 7.50 110.50 6.90 110.50 5.11C110.50 3.35 109.28 2.21 107.38 2.21L102.94 2.21L102.94 11.48L103.99 11.48ZM103.99 3.21L107.25 3.21C108.57 3.21 109.45 3.93 109.45 5.11C109.45 6.55 108.19 6.93 107.20 6.93L103.99 6.93ZM123.21 2.21L119.31 2.21L119.31 11.48L123.21 11.48C125.43 11.48 127.47 9.74 127.47 6.85C127.47 3.95 125.43 2.21 123.21 2.21ZM123.17 10.49L120.36 10.49L120.36 3.21L123.17 3.21C125.15 3.21 126.42 4.86 126.42 6.85C126.42 8.83 125.15 10.49 123.17 10.49ZM142.98 3.22L142.98 2.21L136.16 2.21L136.16 11.48L142.98 11.48L142.98 10.47L137.21 10.47L137.21 7.35L142.37 7.35L142.37 6.33L137.21 6.33L137.21 3.22ZM152.73 7.92L155.95 7.92L158.19 11.48L159.43 11.48L157.00 7.74C158.03 7.50 159.24 6.90 159.24 5.11C159.24 3.35 158.02 2.21 156.11 2.21L151.68 2.21L151.68 11.48L152.73 11.48ZM152.73 3.21L155.99 3.21C157.30 3.21 158.19 3.93 158.19 5.11C158.19 6.55 156.93 6.93 155.93 6.93L152.73 6.93ZM180.80 2.10C178.78 2.10 177.72 3.19 177.72 4.63C177.72 5.56 178.49 6.38 179.12 6.58C178.04 6.99 177.41 7.83 177.41 8.82C177.41 10.47 178.91 11.59 180.66 11.59C182.63 11.59 183.82 10.49 183.82 8.90L183.82 7.13L184.73 7.13L184.73 6.19L183.82 6.19L183.82 5.57L182.84 5.57L182.84 6.19L180.59 6.19C179.62 6.19 178.77 5.70 178.77 4.65C178.77 3.77 179.38 3.05 180.77 3.05C181.86 3.05 182.49 3.58 182.63 4.03L183.74 4.03C183.54 3.08 182.70 2.10 180.80 2.10ZM182.84 7.13L182.84 8.99C182.84 9.86 182.13 10.65 180.66 10.65C179.34 10.65 178.46 9.80 178.46 8.85C178.46 7.91 179.28 7.13 180.46 7.13ZM210.92 2.21L207.66 6.61L204.34 2.21L203.13 2.21L203.13 11.48L204.18 11.48L204.18 3.81L207.66 8.22L211.09 3.81L211.09 11.48L212.14 11.48L212.14 2.21ZM225.53 2.10C222.71 2.10 220.82 4.21 220.82 6.85C220.82 9.48 222.71 11.59 225.53 11.59C228.34 11.59 230.23 9.48 230.23 6.85C230.23 4.21 228.34 2.10 225.53 2.10ZM225.53 10.57C223.27 10.57 221.87 8.93 221.87 6.85C221.87 4.76 223.27 3.12 225.53 3.12C227.78 3.12 229.18 4.76 229.18 6.85C229.18 8.93 227.78 10.57 225.53 10.57ZM239.96 7.92L243.18 7.92L245.42 11.48L246.67 11.48L244.23 7.74C245.27 7.50 246.47 6.90 246.47 5.11C246.47 3.35 245.25 2.21 243.35 2.21L238.91 2.21L238.91 11.48L239.96 11.48ZM239.96 3.21L243.22 3.21C244.54 3.21 245.42 3.93 245.42 5.11C245.42 6.55 244.16 6.93 243.17 6.93L239.96 6.93ZM262.09 3.22L262.09 2.21L255.28 2.21L255.28 11.48L262.09 11.48L262.09 10.47L256.33 10.47L256.33 7.35L261.48 7.35L261.48 6.33L256.33 6.33L256.33 3.22Z"></path></g></svg>